<svg width="32" height="32" viewBox="0 0 32 32" fill="none" xmlns="http://www.w3.org/2000/svg">
<path fill-rule="evenodd" clip-rule="evenodd" d="M11.1809 19.49H11.0407C10.5269 19.4199 10.1766 18.9295 10.2467 18.4157C10.8772 14.2584 11.0874 7.62549 11.0874 7.57878C11.1342 7.06496 11.5312 6.64457 12.0684 6.66792C12.5822 6.69128 12.9792 7.11167 12.9792 7.62549C12.9792 7.90575 12.7457 14.4219 12.1151 18.6959C12.045 19.163 11.648 19.49 11.1809 19.49ZM24.5635 21.2183C24.1664 21.2183 23.7927 20.9614 23.676 20.5643C23.5125 20.0739 23.7927 19.5367 24.2832 19.3966C28.6974 17.9953 28.7674 16.9209 28.7908 16.337C28.8375 15.4262 28.1368 14.2584 27.8566 13.8614C27.5529 13.441 27.6464 12.8571 28.0668 12.5535C28.4872 12.2498 29.071 12.3433 29.3747 12.7637C29.5148 12.9505 30.776 14.7022 30.6592 16.4538C30.5424 18.5791 28.9076 19.887 24.8437 21.1949C24.797 21.1949 24.7503 21.2008 24.7036 21.2066L24.7036 21.2066L24.7036 21.2066C24.6569 21.2125 24.6102 21.2183 24.5635 21.2183ZM11.8815 24.5114C11.6013 24.5114 11.321 24.3946 11.1575 24.1611C10.8305 23.764 10.9006 23.1568 11.321 22.8532C13.2361 21.3351 14.5207 19.9805 15.3615 18.7893C14.8944 18.5558 14.4039 18.2055 14.147 17.6216C13.9134 17.0844 13.7733 16.1969 14.5907 15.0058C15.7585 13.2775 16.9263 12.8804 17.37 12.787C17.9773 12.6702 18.5611 13.0206 18.7246 13.6045C18.8414 14.0248 19.1217 15.3561 18.2809 17.388C19.4019 17.3647 20.2894 17.061 20.9667 16.5005C22.2746 15.4495 22.3447 13.6745 22.3447 13.6512C22.3681 13.1373 22.7885 12.7403 23.3023 12.7403C23.8161 12.7637 24.2131 13.1841 24.2131 13.6979C24.2131 13.7913 24.1197 16.2903 22.1812 17.9252C20.9667 18.9528 19.3085 19.3966 17.3 19.2331C16.3424 20.7045 14.8243 22.4328 12.4654 24.3012C12.2786 24.4413 12.0917 24.5114 11.8815 24.5114ZM16.9496 15.0758C16.6927 15.286 16.4125 15.5897 16.1088 16.0568C15.8052 16.5239 15.7819 16.7808 15.8052 16.8508C15.8519 16.9676 16.0855 17.0844 16.319 17.1778C16.7628 16.2903 16.9029 15.5897 16.9496 15.0758ZM17.1832 21.6387C17.2065 22.1525 17.6269 22.5495 18.1174 22.5495H18.1641C18.2342 22.5495 19.799 22.5028 22.0411 21.989C22.5549 21.8722 22.8819 21.3818 22.7651 20.868C22.6483 20.3541 22.1579 20.0272 21.6441 20.1439C19.5654 20.5877 18.094 20.6578 18.0707 20.6578C17.5569 20.6811 17.1598 21.1249 17.1832 21.6387ZM1.51176 24.1377C1.67525 24.3713 1.97887 24.5114 2.25913 24.5114C2.44597 24.5114 2.63282 24.4647 2.81966 24.3479C8.75191 20.0272 8.98546 14.3752 8.98546 14.1416C8.98546 13.6278 8.58842 13.2074 8.07461 13.1841C7.56079 13.1607 7.14039 13.5811 7.11704 14.0949C7.11704 14.2818 6.88348 19.0696 1.72196 22.8298C1.30156 23.1334 1.20814 23.7173 1.51176 24.1377Z" fill="black" fill-opacity="0.32"/>
</svg>
